<?xml version="1.0" encoding="UTF-8" standalone="no"?> <!-- Created with Vectornator for iOS (http://vectornator.io/) --><!DOCTYPE svg PUBLIC "-//W3C//DTD SVG 1.1//EN" "http://www.w3.org/Graphics/SVG/1.1/DTD/svg11.dtd">
<svg height="100%" style="fill-rule:nonzero;clip-rule:evenodd;stroke-linecap:round;stroke-linejoin:round;" xmlns:xlink="http://www.w3.org/1999/xlink" xmlns="http://www.w3.org/2000/svg" xml:space="preserve" width="100%" xmlns:vectornator="http://vectornator.io" version="1.1" viewBox="0 0 1500 1500">
<metadata>
<vectornator:setting key="DimensionsVisible" value="1"/>
<vectornator:setting key="PencilOnly" value="0"/>
<vectornator:setting key="SnapToPoints" value="0"/>
<vectornator:setting key="OutlineMode" value="0"/>
<vectornator:setting key="CMYKEnabledKey" value="0"/>
<vectornator:setting key="RulersVisible" value="1"/>
<vectornator:setting key="SnapToEdges" value="0"/>
<vectornator:setting key="GuidesVisible" value="1"/>
<vectornator:setting key="DisplayWhiteBackground" value="0"/>
<vectornator:setting key="doHistoryDisabled" value="0"/>
<vectornator:setting key="SnapToGuides" value="1"/>
<vectornator:setting key="TimeLapseWatermarkDisabled" value="0"/>
<vectornator:setting key="Units" value="Pixels"/>
<vectornator:setting key="DynamicGuides" value="0"/>
<vectornator:setting key="IsolateActiveLayer" value="0"/>
<vectornator:setting key="SnapToGrid" value="0"/>
</metadata>
<defs/>
<g id="レイヤー 1 コピー" vectornator:layerName="レイヤー 1 コピー">
<path d="M281.298+1217.02C281.298+1174.68+426.015+1140.36+604.532+1140.36C783.05+1140.36+927.767+1174.68+927.767+1217.02C927.767+1259.36+923.478+1331.14+606.107+1332.13C282.725+1333.13+281.298+1259.36+281.298+1217.02Z" opacity="1" fill="#000000"/>
<path d="M885.373+1312.29C895.16+1318.32+948.943+1318.8+996.156+1319.48C1017.1+1319.78+1021.26+1320.27+1046.15+1321.06C1124.15+1323.54+1156.99+1328.03+1209.34+1307.84C1269.28+1284.72+1308.14+1263.44+1308.14+1263.44C1308.14+1263.44+1342.73+1245.9+1365.55+1231.12C1388.37+1216.34+1340.22+1215.56+1296.4+1210.03C1250.69+1204.26+1181.26+1199.22+1181.26+1199.22C1181.26+1199.22+1167.61+1197.76+1137.72+1206.37C1116.65+1212.44+1068.19+1229.42+1077.94+1233.26C1090.77+1238.3+1129.19+1239.22+1158.63+1240.63C1183.34+1241.81+1200.33+1244.83+1191.86+1249.42C1168.86+1261.89+1128.41+1278.03+1092.92+1276.8C1047.41+1275.22+1059.77+1276.35+999.996+1273.05C963.256+1271.01+957.308+1276.42+931.019+1284.94C899.922+1295.02+871.244+1303.57+885.373+1312.29Z" opacity="1" fill="#000000"/>
<path d="M1126.94+434.094C1124.9+433.917+1122.82+434.146+1120.84+434.812L1025.84+466.812C1020.26+468.692+1016.31+473.674+1015.72+479.531C1015.66+480.105+1008.34+552.364+1008.28+552.938C1007.66+559.108+1010.9+565.042+1016.44+567.844C1016.53+567.893+1023.71+571.605+1026.56+573.125C1034.75+577.48+1043.96+582.503+1053.91+588.125C1082.33+604.189+1111.17+621.807+1138.62+640.375C1167.84+660.133+1183.94+672.672+1195.28+685.5C1207.7+699.537+1212.02+711.813+1209.16+725.094C1207.11+734.559+1205.58+744.886+1203.34+762.969C1203.1+764.972+1200.9+782.86+1200.44+786.375C1197.22+810.804+1194.01+827.213+1189.53+839.656C1185.05+852.101+1180.35+857.675+1176.03+858.281C1161.65+860.3+1146.51+857.115+1131.91+850.469C1127.8+848.6+1124.07+846.607+1120.81+844.625C1119.7+843.949+1118.74+843.351+1117.94+842.812C1117.51+842.525+1116.9+842.072+1116.75+841.969L1044.31+792.875C1040.69+790.418+1036.16+789.659+1031.94+790.812L952+812.625C946.633+814.09+942.521+818.413+941.312+823.844L923.156+905.406C921.915+910.981+923.956+916.796+928.406+920.375C928.496+920.447+933.653+924.554+935.688+926.156C941.489+930.725+948.04+935.805+955.188+941.281C975.613+956.93+996.82+972.591+1017.72+987.219C1026.47+993.341+1034.98+999.172+1043.25+1004.66C1076.86+1026.95+1104.8+1042.78+1125.81+1050.56C1168.67+1066.43+1220.42+1064.99+1264.72+1046.59C1313.27+1026.43+1348.57+988.137+1361.16+936.906C1366.78+914.007+1373.53+883.863+1381.28+847.5C1382.85+840.116+1384.45+832.529+1386.09+824.688C1391.2+800.303+1396.5+774.519+1402.19+746.344C1404.34+735.687+1413.31+690.837+1414.09+686.938C1419.32+660.858+1412.15+635.386+1395.06+610.969C1381.64+591.785+1362.56+573.795+1338.47+556C1323.26+544.765+1311.47+537.178+1287.62+522.562C1274.71+514.65+1250.36+500.767+1217.59+482.531C1216.68+482.022+1177.66+460.413+1158.44+449.875C1151.71+446.187+1132.89+435.888+1132.81+435.844C1130.98+434.846+1128.97+434.271+1126.94+434.094ZM1124.19+465.344C1129.55+468.27+1138.82+473.331+1144.03+476.188C1163.21+486.699+1182.39+497.27+1200.28+507.219C1201.2+507.731+1202.12+508.243+1203.03+508.75C1235.42+526.776+1259.54+540.509+1271.97+548.125C1295.1+562.301+1306.35+569.563+1320.66+580.125C1367.68+614.854+1391.21+648.473+1384.69+681.062C1383.91+684.969+1374.93+729.768+1372.78+740.406C1367.11+768.514+1361.84+794.227+1356.75+818.531C1355.11+826.34+1353.5+833.9+1351.94+841.25C1344.25+877.335+1337.54+907.208+1332+929.75C1321.79+971.312+1293.3+1002.26+1253.22+1018.91C1215.83+1034.43+1171.93+1035.64+1136.25+1022.44C1117.96+1015.67+1091.66+1000.76+1059.84+979.656C1051.79+974.315+1043.46+968.61+1034.91+962.625C1014.39+948.269+993.544+932.873+973.438+917.469C966.482+912.14+960.119+907.229+954.469+902.781L968.625+839.219L1033.19+821.562L1099.47+866.5C1099.83+866.766+1100.4+867.145+1101.16+867.656C1102.33+868.448+1103.68+869.329+1105.19+870.25C1109.42+872.831+1114.22+875.392+1119.47+877.781C1138.83+886.595+1159.41+890.886+1180.19+887.969C1189.83+886.615+1198.05+881.67+1204.66+873.906C1209.99+867.634+1214.23+859.6+1217.75+849.812C1223.15+834.792+1226.71+816.716+1230.19+790.281C1230.66+786.674+1232.88+768.638+1233.12+766.656C1235.25+749.449+1236.68+739.745+1238.47+731.438C1243.57+707.796+1235.99+686.254+1217.75+665.625C1204.21+650.316+1186.68+636.662+1155.44+615.531C1127.26+596.473+1097.74+578.465+1068.66+562.031C1058.48+556.279+1049.07+551.128+1040.66+546.656C1040.24+546.436+1039.72+546.172+1039.16+545.875C1040.46+533.018+1043.34+504.522+1044.59+492.156L1124.19+465.344Z" opacity="1" fill="#000000"/>
<path d="M955.125+827.469C950.312+827.337+945.515+829.541+942.5+833.75C937.676+840.485+939.203+849.832+945.938+854.656C946.021+854.716+950.857+858.14+952.75+859.469C958.146+863.259+964.208+867.488+970.844+872.031C989.806+885.013+1009.46+897.991+1028.75+910.125C1036.14+914.773+1043.34+919.197+1050.34+923.406C1064.24+931.757+1077.16+939.119+1088.91+945.281C1122.66+962.995+1153.49+957.357+1176.94+933.188C1194.33+915.26+1206.76+887.811+1212.62+859.531C1214.31+851.42+1209.08+843.496+1200.97+841.812C1192.86+840.129+1184.93+845.326+1183.25+853.438C1178.44+876.603+1168.3+899.02+1155.41+912.312C1141.04+927.123+1124.58+930.127+1102.84+918.719C1091.66+912.849+1079.24+905.79+1065.81+897.719C1058.99+893.618+1051.94+889.262+1044.72+884.719C1025.79+872.811+1006.48+860.027+987.812+847.25C981.279+842.777+975.27+838.629+969.969+834.906C968.117+833.606+963.473+830.329+963.406+830.281C960.881+828.472+958.013+827.548+955.125+827.469Z" opacity="1" fill="#000000"/>
<path d="M614.656+133.781C553.271+133.088+480.372+144.632+407.75+166.156C324.753+190.756+248.548+226.506+195.75+266.594C135.131+312.62+106.566+363.094+120.781+412.969C128.927+441.548+136.411+471.303+150.438+529.75C169.129+607.635+174.296+628.761+184.281+666.656C208.523+758.657+231.931+829.603+258.844+886.812C292.264+957.855+329.956+1004.41+374.906+1023.66C428.751+1046.71+473.991+1057.22+520.438+1057.84C561.212+1058.39+601.617+1051.88+664.906+1036.19C665.344+1036.08+665.792+1035.96+666.219+1035.81C727.837+1014.48+765.232+997.924+799.125+975.25C837.733+949.422+869.944+915.919+902.531+867.25C927.69+829.677+934.901+775.855+927.406+706.5C921.223+649.278+905.272+582.609+880.031+501.969C870.442+471.334+859.766+439.342+846.594+401.531C838.905+379.46+813.591+308.12+811.594+302.438C798.703+265.773+789.909+239.701+782.844+216.75C767.586+167.184+716.159+140.405+640.25+134.844C631.986+134.238+623.426+133.88+614.656+133.781ZM613.938+163.781C622.225+163.868+630.262+164.181+638.031+164.75C702.988+169.509+743.404+190.564+754.188+225.594C761.395+249.007+770.27+275.368+783.281+312.375C785.304+318.128+810.594+389.43+818.25+411.406C831.326+448.94+841.925+480.648+851.406+510.938C876.113+589.87+891.659+654.802+897.594+709.719C904.402+772.726+898.042+820.023+877.594+850.562C847.09+896.119+817.601+926.788+782.438+950.312C751.303+971.141+716.03+986.774+657.156+1007.19C596.492+1022.21+558.361+1028.34+520.844+1027.84C478.541+1027.28+437.121+1017.64+386.719+996.062C350.024+980.353+316.585+939.047+286+874.031C260.022+818.81+237.098+749.419+213.281+659.031C203.375+621.436+198.227+600.393+179.594+522.75C165.468+463.891+157.957+433.872+149.656+404.75C139.61+369.502+162.002+329.854+213.875+290.469C263.507+252.785+336.521+218.578+416.281+194.938C486.072+174.252+555.925+163.176+613.938+163.781Z" opacity="1" fill="#000000"/>
<path d="M598.469+181.031C546.25+181.179+483.886+191.085+420.5+209.844C348.058+231.283+283.05+261.673+237.625+294.781C189.07+330.17+164.693+367.136+174.562+400.375C184.429+433.603+225.043+451.34+285.062+454.594C341.22+457.638+412.308+447.751+484.75+426.312C557.192+404.873+622.2+374.483+667.625+341.375C716.18+305.986+740.557+268.989+730.688+235.75C720.821+202.522+680.207+184.816+620.188+181.562C613.168+181.182+605.929+181.01+598.469+181.031ZM598.188+211.031C605.198+211.006+612.001+211.144+618.562+211.5C667.193+214.136+696.822+227.085+701.938+244.312C707.049+261.529+689.265+288.462+649.938+317.125C607.48+348.07+545.553+377.012+476.219+397.531C406.884+418.051+339.18+427.47+286.688+424.625C238.057+421.989+208.428+409.071+203.312+391.844C198.201+374.628+215.954+347.695+255.281+319.031C297.739+288.087+359.666+259.144+429+238.625C489.668+220.67+549.111+211.21+598.188+211.031Z" opacity="1" fill="#000000"/>
<path d="M1041.06+478.281C1036.25+478.526+1031.65+481.099+1028.97+485.531C1024.69+492.623+1026.97+501.843+1034.06+506.125L1205.88+609.875C1212.97+614.157+1222.19+611.873+1226.47+604.781C1230.75+597.69+1228.47+588.47+1221.38+584.188L1049.56+480.438C1046.9+478.832+1043.95+478.134+1041.06+478.281Z" opacity="1" fill="#000000"/>
</g>
</svg>
