<?xml version="1.0" encoding="UTF-8" standalone="no"?><!DOCTYPE svg PUBLIC "-//W3C//DTD SVG 1.1//EN" "http://www.w3.org/Graphics/SVG/1.1/DTD/svg11.dtd"><svg xmlns="http://www.w3.org/2000/svg" xmlns:xlink="http://www.w3.org/1999/xlink"><symbol viewBox="0 0 1500 1500" clip-rule="evenodd" stroke-linecap="round" stroke-linejoin="round" id="designed" xmlns="http://www.w3.org/2000/svg"><g xmlns:vectornator="http://vectornator.io" vectornator:layerName="レイヤー 1 コピー"><path d="M281.298 1217.02c0-42.34 144.717-76.66 323.234-76.66 178.518 0 323.235 34.32 323.235 76.66 0 42.34-4.289 114.12-321.66 115.11-323.382 1-324.809-72.77-324.809-115.11z"/><path d="M885.373 1312.29c9.787 6.03 63.57 6.51 110.783 7.19 20.944.3 25.104.79 49.994 1.58 78 2.48 110.84 6.97 163.19-13.22 59.94-23.12 98.8-44.4 98.8-44.4s34.59-17.54 57.41-32.32c22.82-14.78-25.33-15.56-69.15-21.09-45.71-5.77-115.14-10.81-115.14-10.81s-13.65-1.46-43.54 7.15c-21.07 6.07-69.53 23.05-59.78 26.89 12.83 5.04 51.25 5.96 80.69 7.37 24.71 1.18 41.7 4.2 33.23 8.79-23 12.47-63.45 28.61-98.94 27.38-45.51-1.58-33.15-.45-92.924-3.75-36.74-2.04-42.688 3.37-68.977 11.89-31.097 10.08-59.775 18.63-45.646 27.35zM1126.94 434.094c-2.04-.177-4.12.052-6.1.718l-95 32a14.997 14.997 0 00-10.12 12.719c-.06.574-7.38 72.833-7.44 73.407a15.027 15.027 0 008.16 14.906c.09.049 7.27 3.761 10.12 5.281 8.19 4.355 17.4 9.378 27.35 15 28.42 16.064 57.26 33.682 84.71 52.25 29.22 19.758 45.32 32.297 56.66 45.125 12.42 14.037 16.74 26.313 13.88 39.594-2.05 9.465-3.58 19.792-5.82 37.875-.24 2.003-2.44 19.891-2.9 23.406-3.22 24.429-6.43 40.838-10.91 53.281-4.48 12.445-9.18 18.019-13.5 18.625-14.38 2.019-29.52-1.166-44.12-7.812a105.668 105.668 0 01-11.1-5.844 76.818 76.818 0 01-2.87-1.813c-.43-.287-1.04-.74-1.19-.843l-72.44-49.094a15.012 15.012 0 00-12.37-2.063L952 812.625a15.006 15.006 0 00-10.688 11.219l-18.156 81.562a15.039 15.039 0 005.25 14.969c.09.072 5.247 4.179 7.282 5.781a1860.05 1860.05 0 0019.5 15.125c20.425 15.649 41.632 31.31 62.532 45.938 8.75 6.122 17.26 11.953 25.53 17.441 33.61 22.29 61.55 38.12 82.56 45.9 42.86 15.87 94.61 14.43 138.91-3.97 48.55-20.16 83.85-58.453 96.44-109.684 5.62-22.899 12.37-53.043 20.12-89.406 1.57-7.384 3.17-14.971 4.81-22.812 5.11-24.385 10.41-50.169 16.1-78.344 2.15-10.657 11.12-55.507 11.9-59.406 5.23-26.08-1.94-51.552-19.03-75.969-13.42-19.184-32.5-37.174-56.59-54.969-15.21-11.235-27-18.822-50.85-33.438-12.91-7.912-37.26-21.795-70.03-40.031-.91-.509-39.93-22.118-59.15-32.656-6.73-3.688-25.55-13.987-25.63-14.031a14.977 14.977 0 00-5.87-1.75zm-2.75 31.25c5.36 2.926 14.63 7.987 19.84 10.844a10496.158 10496.158 0 0159 32.562c32.39 18.026 56.51 31.759 68.94 39.375 23.13 14.176 34.38 21.438 48.69 32 47.02 34.729 70.55 68.348 64.03 100.937-.78 3.907-9.76 48.706-11.91 59.344-5.67 28.108-10.94 53.821-16.03 78.125-1.64 7.809-3.25 15.369-4.81 22.719-7.69 36.085-14.4 65.958-19.94 88.5-10.21 41.562-38.7 72.51-78.78 89.16-37.39 15.52-81.29 16.73-116.97 3.53-18.29-6.77-44.59-21.68-76.41-42.784-8.05-5.341-16.38-11.046-24.93-17.031-20.52-14.356-41.366-29.752-61.472-45.156-6.956-5.329-13.319-10.24-18.969-14.688l14.156-63.562 64.565-17.657 66.28 44.938c.36.266.93.645 1.69 1.156 1.17.792 2.52 1.673 4.03 2.594 4.23 2.581 9.03 5.142 14.28 7.531 19.36 8.814 39.94 13.105 60.72 10.188 9.64-1.354 17.86-6.299 24.47-14.063 5.33-6.272 9.57-14.306 13.09-24.094 5.4-15.02 8.96-33.096 12.44-59.531.47-3.607 2.69-21.643 2.93-23.625 2.13-17.207 3.56-26.911 5.35-35.218 5.1-23.642-2.48-45.184-20.72-65.813-13.54-15.309-31.07-28.963-62.31-50.094-28.18-19.058-57.7-37.066-86.78-53.5a1256.313 1256.313 0 00-28-15.375c-.42-.22-.94-.484-1.5-.781l5.43-53.719 79.6-26.812z"/><path d="M955.125 827.469a15.015 15.015 0 00-12.625 6.281c-4.824 6.735-3.297 16.082 3.438 20.906a1820.543 1820.543 0 0024.906 17.375c18.962 12.982 38.616 25.96 57.906 38.094 7.39 4.648 14.59 9.072 21.59 13.281 13.9 8.351 26.82 15.713 38.57 21.875 33.75 17.714 64.58 12.076 88.03-12.093 17.39-17.928 29.82-45.377 35.68-73.657 1.69-8.111-3.54-16.035-11.65-17.719-8.11-1.683-16.04 3.514-17.72 11.626-4.81 23.165-14.95 45.582-27.84 58.874-14.37 14.811-30.83 17.815-52.57 6.407-11.18-5.87-23.6-12.929-37.03-21-6.82-4.101-13.87-8.457-21.09-13-18.93-11.908-38.24-24.692-56.908-37.469a1860.334 1860.334 0 01-17.843-12.344c-1.852-1.3-6.496-4.577-6.563-4.625-2.525-1.809-5.393-2.733-8.281-2.812zM614.656 133.781c-61.385-.693-134.284 10.851-206.906 32.375-82.997 24.6-159.202 60.35-212 100.438-60.619 46.026-89.184 96.5-74.969 146.375 8.146 28.579 15.63 58.334 29.657 116.781 18.691 77.885 23.858 99.011 33.843 136.906 24.242 92.001 47.65 162.947 74.563 220.156 33.42 71.043 71.112 117.598 116.062 136.848 53.845 23.05 99.085 33.56 145.532 34.18 40.774.55 81.179-5.96 144.468-21.65.438-.11.886-.23 1.313-.38 61.618-21.33 99.013-37.886 132.906-60.56 38.608-25.828 70.819-59.331 103.406-108 25.159-37.573 32.37-91.395 24.875-160.75-6.183-57.222-22.134-123.891-47.375-204.531-9.589-30.635-20.265-62.627-33.437-100.438-7.689-22.071-33.003-93.411-35-99.093-12.891-36.665-21.685-62.737-28.75-85.688-15.258-49.566-66.685-76.345-142.594-81.906a414.617 414.617 0 00-25.594-1.063zm-.718 30c8.287.087 16.324.4 24.093.969 64.957 4.759 105.373 25.814 116.157 60.844 7.207 23.413 16.082 49.774 29.093 86.781 2.023 5.753 27.313 77.055 34.969 99.031 13.076 37.534 23.675 69.242 33.156 99.532 24.707 78.932 40.253 143.864 46.188 198.781 6.808 63.007.448 110.304-20 140.843-30.504 45.557-59.993 76.226-95.156 99.75-31.135 20.829-66.408 36.462-125.282 56.878-60.664 15.02-98.795 21.15-136.312 20.65-42.303-.56-83.723-10.2-134.125-31.778-36.695-15.709-70.134-57.015-100.719-122.031-25.978-55.221-48.902-124.612-72.719-215-9.906-37.595-15.054-58.638-33.687-136.281-14.126-58.859-21.637-88.878-29.938-118-10.046-35.248 12.346-74.896 64.219-114.281 49.632-37.684 122.646-71.891 202.406-95.531 69.791-20.686 139.644-31.762 197.657-31.157z"/><path d="M598.469 181.031c-52.219.148-114.583 10.054-177.969 28.813-72.442 21.439-137.45 51.829-182.875 84.937-48.555 35.389-72.932 72.355-63.063 105.594 9.867 33.228 50.481 50.965 110.5 54.219 56.158 3.044 127.246-6.843 199.688-28.282s137.45-51.829 182.875-84.937c48.555-35.389 72.932-72.386 63.063-105.625-9.867-33.228-50.481-50.934-110.5-54.188-7.02-.38-14.259-.552-21.719-.531zm-.281 30c7.01-.025 13.813.113 20.374.469 48.631 2.636 78.26 15.585 83.376 32.812 5.111 17.217-12.673 44.15-52 72.813-42.458 30.945-104.385 59.887-173.719 80.406-69.335 20.52-137.039 29.939-189.531 27.094-48.631-2.636-78.26-15.554-83.376-32.781-5.111-17.216 12.642-44.149 51.969-72.813 42.458-30.944 104.385-59.887 173.719-80.406 60.668-17.955 120.111-27.415 169.188-27.594zM1041.06 478.281a15.01 15.01 0 00-12.09 7.25c-4.28 7.092-2 16.312 5.09 20.594l171.82 103.75c7.09 4.282 16.31 1.998 20.59-5.094 4.28-7.091 2-16.311-5.09-20.593l-171.82-103.75a14.925 14.925 0 00-8.5-2.157z"/></g></symbol><symbol viewBox="0 0 512 512" id="post2" xmlns="http://www.w3.org/2000/svg"><path class="bst0" d="M378.409 0H195.118l-9.314 9.315L57.017 138.101l-9.314 9.315V426.105c0 47.36 38.528 85.896 85.895 85.896h244.811c47.361 0 85.888-38.535 85.888-85.896V85.896C464.297 38.528 425.77 0 378.409 0zm54.084 426.104c0 29.877-24.214 54.091-54.084 54.091H133.598c-29.877 0-54.091-24.214-54.091-54.091V160.592h83.717c24.884 0 45.07-20.179 45.07-45.071V31.804h170.114c29.87 0 54.084 24.214 54.084 54.091v340.209z"/><path class="bst0" d="M180.296 296.668l-4.846-.67c-10.63-1.487-14.265-4.978-14.265-10.104 0-5.78 4.309-9.817 12.383-9.817 5.653 0 11.305 1.62 15.745 3.764 1.886.942 3.903 1.487 5.789 1.487 4.845 0 8.612-3.63 8.612-8.616 0-3.226-1.481-5.921-4.71-7.939-5.384-3.372-15.476-6.06-25.572-6.06-19.781 0-32.436 11.171-32.436 27.998 0 16.15 10.232 24.898 28.938 27.454l4.846.67c10.903 1.48 14.129 4.846 14.129 10.229 0 6.326-5.247 10.766-14.939 10.766-6.727 0-12.111-1.745-19.645-5.921-1.616-.942-3.634-1.62-5.788-1.62-5.115 0-8.885 3.91-8.885 8.756 0 3.226 1.616 6.326 4.713 8.344 6.054 3.764 15.878 7.8 28.798 7.8 23.823 0 35.934-12.24 35.934-28.795 0-16.554-9.824-25.038-28.801-27.726zM281.108 259.382c-4.577 0-7.939 2.43-9.556 7.674l-16.69 54.51h-.402l-17.634-54.51c-1.745-5.244-4.978-7.674-9.551-7.674-5.653 0-9.692 4.176-9.692 9.287 0 1.347.269 2.834.67 4.175l23.286 68.104c2.96 8.477 6.727 11.57 12.652 11.57 5.785 0 9.555-3.093 12.516-11.57l23.282-68.104c.406-1.341.674-2.828.674-4.175.001-5.111-3.903-9.287-9.555-9.287zM364.556 300.836h-18.841c-5.114 0-8.344 3.1-8.344 7.806 0 4.713 3.23 7.814 8.344 7.814h6.193c.538 0 .803.258.803.803 0 3.505-.265 6.598-1.075 9.014-1.882 5.796-7.67 9.426-14.669 9.426-7.943 0-12.921-3.903-14.939-10.096-1.075-3.365-1.48-7.8-1.48-19.648 0-11.842.405-16.15 1.48-19.516 2.018-6.325 6.867-10.228 14.67-10.228 5.924 0 10.362 1.885 13.859 6.724 2.695 3.777 5.387 4.852 8.749 4.852 4.981 0 9.021-3.638 9.021-8.888 0-2.151-.674-4.035-1.752-5.921-4.842-8.204-15.071-14.264-29.877-14.264-16.287 0-28.935 7.408-33.644 22.204-2.022 6.466-2.559 11.576-2.559 25.038 0 13.454.538 18.573 2.559 25.031 4.709 14.802 17.357 22.204 33.644 22.204 16.286 0 28.668-8.204 33.374-22.881 1.617-5.111 2.29-12.645 2.29-20.716v-.95c0-4.98-2.824-7.808-7.806-7.808z"/></symbol><symbol viewBox="0 0 0 0" id="sprite" xmlns="http://www.w3.org/2000/svg"><symbol viewBox="0 0 1500 1500" clip-rule="evenodd" stroke-linecap="round" stroke-linejoin="round" id="cdesigned" xmlns="http://www.w3.org/2000/svg"><g xmlns:vectornator="http://vectornator.io" vectornator:layerName="レイヤー 1 コピー"><path d="M281.298 1217.02c0-42.34 144.717-76.66 323.234-76.66 178.518 0 323.235 34.32 323.235 76.66 0 42.34-4.289 114.12-321.66 115.11-323.382 1-324.809-72.77-324.809-115.11z"/><path d="M885.373 1312.29c9.787 6.03 63.57 6.51 110.783 7.19 20.944.3 25.104.79 49.994 1.58 78 2.48 110.84 6.97 163.19-13.22 59.94-23.12 98.8-44.4 98.8-44.4s34.59-17.54 57.41-32.32c22.82-14.78-25.33-15.56-69.15-21.09-45.71-5.77-115.14-10.81-115.14-10.81s-13.65-1.46-43.54 7.15c-21.07 6.07-69.53 23.05-59.78 26.89 12.83 5.04 51.25 5.96 80.69 7.37 24.71 1.18 41.7 4.2 33.23 8.79-23 12.47-63.45 28.61-98.94 27.38-45.51-1.58-33.15-.45-92.924-3.75-36.74-2.04-42.688 3.37-68.977 11.89-31.097 10.08-59.775 18.63-45.646 27.35zm241.567-878.196c-2.04-.177-4.12.052-6.1.718l-95 32a14.997 14.997 0 00-10.12 12.719c-.06.574-7.38 72.833-7.44 73.407a15.027 15.027 0 008.16 14.906c.09.049 7.27 3.761 10.12 5.281 8.19 4.355 17.4 9.378 27.35 15 28.42 16.064 57.26 33.682 84.71 52.25 29.22 19.758 45.32 32.297 56.66 45.125 12.42 14.037 16.74 26.313 13.88 39.594-2.05 9.465-3.58 19.792-5.82 37.875-.24 2.003-2.44 19.891-2.9 23.406-3.22 24.429-6.43 40.838-10.91 53.281-4.48 12.445-9.18 18.019-13.5 18.625-14.38 2.019-29.52-1.166-44.12-7.812a105.668 105.668 0 01-11.1-5.844 76.818 76.818 0 01-2.87-1.813c-.43-.287-1.04-.74-1.19-.843l-72.44-49.094a15.012 15.012 0 00-12.37-2.063L952 812.625a15.006 15.006 0 00-10.688 11.219l-18.156 81.562a15.039 15.039 0 005.25 14.969c.09.072 5.247 4.179 7.282 5.781a1860.05 1860.05 0 0019.5 15.125c20.425 15.649 41.632 31.31 62.532 45.938 8.75 6.122 17.26 11.953 25.53 17.441 33.61 22.29 61.55 38.12 82.56 45.9 42.86 15.87 94.61 14.43 138.91-3.97 48.55-20.16 83.85-58.453 96.44-109.684 5.62-22.899 12.37-53.043 20.12-89.406 1.57-7.384 3.17-14.971 4.81-22.812 5.11-24.385 10.41-50.169 16.1-78.344 2.15-10.657 11.12-55.507 11.9-59.406 5.23-26.08-1.94-51.552-19.03-75.969-13.42-19.184-32.5-37.174-56.59-54.969-15.21-11.235-27-18.822-50.85-33.438-12.91-7.912-37.26-21.795-70.03-40.031-.91-.509-39.93-22.118-59.15-32.656-6.73-3.688-25.55-13.987-25.63-14.031a14.977 14.977 0 00-5.87-1.75zm-2.75 31.25c5.36 2.926 14.63 7.987 19.84 10.844a10496.158 10496.158 0 0159 32.562c32.39 18.026 56.51 31.759 68.94 39.375 23.13 14.176 34.38 21.438 48.69 32 47.02 34.729 70.55 68.348 64.03 100.937-.78 3.907-9.76 48.706-11.91 59.344-5.67 28.108-10.94 53.821-16.03 78.125-1.64 7.809-3.25 15.369-4.81 22.719-7.69 36.085-14.4 65.958-19.94 88.5-10.21 41.562-38.7 72.51-78.78 89.16-37.39 15.52-81.29 16.73-116.97 3.53-18.29-6.77-44.59-21.68-76.41-42.784-8.05-5.341-16.38-11.046-24.93-17.031-20.52-14.356-41.366-29.752-61.472-45.156-6.956-5.329-13.319-10.24-18.969-14.688l14.156-63.562 64.565-17.657 66.28 44.938c.36.266.93.645 1.69 1.156 1.17.792 2.52 1.673 4.03 2.594 4.23 2.581 9.03 5.142 14.28 7.531 19.36 8.814 39.94 13.105 60.72 10.188 9.64-1.354 17.86-6.299 24.47-14.063 5.33-6.272 9.57-14.306 13.09-24.094 5.4-15.02 8.96-33.096 12.44-59.531.47-3.607 2.69-21.643 2.93-23.625 2.13-17.207 3.56-26.911 5.35-35.218 5.1-23.642-2.48-45.184-20.72-65.813-13.54-15.309-31.07-28.963-62.31-50.094-28.18-19.058-57.7-37.066-86.78-53.5a1256.313 1256.313 0 00-28-15.375c-.42-.22-.94-.484-1.5-.781l5.43-53.719 79.6-26.812z"/><path d="M955.125 827.469a15.015 15.015 0 00-12.625 6.281c-4.824 6.735-3.297 16.082 3.438 20.906a1820.543 1820.543 0 0024.906 17.375c18.962 12.982 38.616 25.96 57.906 38.094 7.39 4.648 14.59 9.072 21.59 13.281 13.9 8.351 26.82 15.713 38.57 21.875 33.75 17.714 64.58 12.076 88.03-12.093 17.39-17.928 29.82-45.377 35.68-73.657 1.69-8.111-3.54-16.035-11.65-17.719-8.11-1.683-16.04 3.514-17.72 11.626-4.81 23.165-14.95 45.582-27.84 58.874-14.37 14.811-30.83 17.815-52.57 6.407-11.18-5.87-23.6-12.929-37.03-21-6.82-4.101-13.87-8.457-21.09-13-18.93-11.908-38.24-24.692-56.908-37.469a1860.334 1860.334 0 01-17.843-12.344c-1.852-1.3-6.496-4.577-6.563-4.625-2.525-1.809-5.393-2.733-8.281-2.812zM614.656 133.781c-61.385-.693-134.284 10.851-206.906 32.375-82.997 24.6-159.202 60.35-212 100.438-60.619 46.026-89.184 96.5-74.969 146.375 8.146 28.579 15.63 58.334 29.657 116.781 18.691 77.885 23.858 99.011 33.843 136.906 24.242 92.001 47.65 162.947 74.563 220.156 33.42 71.043 71.112 117.598 116.062 136.848 53.845 23.05 99.085 33.56 145.532 34.18 40.774.55 81.179-5.96 144.468-21.65.438-.11.886-.23 1.313-.38 61.618-21.33 99.013-37.886 132.906-60.56 38.608-25.828 70.819-59.331 103.406-108 25.159-37.573 32.37-91.395 24.875-160.75-6.183-57.222-22.134-123.891-47.375-204.531-9.589-30.635-20.265-62.627-33.437-100.438-7.689-22.071-33.003-93.411-35-99.093-12.891-36.665-21.685-62.737-28.75-85.688-15.258-49.566-66.685-76.345-142.594-81.906a414.617 414.617 0 00-25.594-1.063zm-.718 30c8.287.087 16.324.4 24.093.969 64.957 4.759 105.373 25.814 116.157 60.844 7.207 23.413 16.082 49.774 29.093 86.781 2.023 5.753 27.313 77.055 34.969 99.031 13.076 37.534 23.675 69.242 33.156 99.532 24.707 78.932 40.253 143.864 46.188 198.781 6.808 63.007.448 110.304-20 140.843-30.504 45.557-59.993 76.226-95.156 99.75-31.135 20.829-66.408 36.462-125.282 56.878-60.664 15.02-98.795 21.15-136.312 20.65-42.303-.56-83.723-10.2-134.125-31.778-36.695-15.709-70.134-57.015-100.719-122.031-25.978-55.221-48.902-124.612-72.719-215-9.906-37.595-15.054-58.638-33.687-136.281-14.126-58.859-21.637-88.878-29.938-118-10.046-35.248 12.346-74.896 64.219-114.281 49.632-37.684 122.646-71.891 202.406-95.531 69.791-20.686 139.644-31.762 197.657-31.157z"/><path d="M598.469 181.031c-52.219.148-114.583 10.054-177.969 28.813-72.442 21.439-137.45 51.829-182.875 84.937-48.555 35.389-72.932 72.355-63.063 105.594 9.867 33.228 50.481 50.965 110.5 54.219 56.158 3.044 127.246-6.843 199.688-28.282s137.45-51.829 182.875-84.937c48.555-35.389 72.932-72.386 63.063-105.625-9.867-33.228-50.481-50.934-110.5-54.188-7.02-.38-14.259-.552-21.719-.531zm-.281 30c7.01-.025 13.813.113 20.374.469 48.631 2.636 78.26 15.585 83.376 32.812 5.111 17.217-12.673 44.15-52 72.813-42.458 30.945-104.385 59.887-173.719 80.406-69.335 20.52-137.039 29.939-189.531 27.094-48.631-2.636-78.26-15.554-83.376-32.781-5.111-17.216 12.642-44.149 51.969-72.813 42.458-30.944 104.385-59.887 173.719-80.406 60.668-17.955 120.111-27.415 169.188-27.594zm442.872 267.25a15.01 15.01 0 00-12.09 7.25c-4.28 7.092-2 16.312 5.09 20.594l171.82 103.75c7.09 4.282 16.31 1.998 20.59-5.094 4.28-7.091 2-16.311-5.09-20.593l-171.82-103.75a14.925 14.925 0 00-8.5-2.157z"/></g></symbol><symbol viewBox="0 0 512 512" id="cpost2" xmlns="http://www.w3.org/2000/svg"><path class="cbst0" d="M378.409 0H195.118l-9.314 9.315L57.017 138.101l-9.314 9.315v278.689c0 47.36 38.528 85.896 85.895 85.896h244.811c47.361 0 85.888-38.535 85.888-85.896V85.896C464.297 38.528 425.77 0 378.409 0zm54.084 426.104c0 29.877-24.214 54.091-54.084 54.091H133.598c-29.877 0-54.091-24.214-54.091-54.091V160.592h83.717c24.884 0 45.07-20.179 45.07-45.071V31.804h170.114c29.87 0 54.084 24.214 54.084 54.091v340.209z"/><path class="cbst0" d="M180.296 296.668l-4.846-.67c-10.63-1.487-14.265-4.978-14.265-10.104 0-5.78 4.309-9.817 12.383-9.817 5.653 0 11.305 1.62 15.745 3.764 1.886.942 3.903 1.487 5.789 1.487 4.845 0 8.612-3.63 8.612-8.616 0-3.226-1.481-5.921-4.71-7.939-5.384-3.372-15.476-6.06-25.572-6.06-19.781 0-32.436 11.171-32.436 27.998 0 16.15 10.232 24.898 28.938 27.454l4.846.67c10.903 1.48 14.129 4.846 14.129 10.229 0 6.326-5.247 10.766-14.939 10.766-6.727 0-12.111-1.745-19.645-5.921-1.616-.942-3.634-1.62-5.788-1.62-5.115 0-8.885 3.91-8.885 8.756 0 3.226 1.616 6.326 4.713 8.344 6.054 3.764 15.878 7.8 28.798 7.8 23.823 0 35.934-12.24 35.934-28.795 0-16.554-9.824-25.038-28.801-27.726zm100.812-37.286c-4.577 0-7.939 2.43-9.556 7.674l-16.69 54.51h-.402l-17.634-54.51c-1.745-5.244-4.978-7.674-9.551-7.674-5.653 0-9.692 4.176-9.692 9.287 0 1.347.269 2.834.67 4.175l23.286 68.104c2.96 8.477 6.727 11.57 12.652 11.57 5.785 0 9.555-3.093 12.516-11.57l23.282-68.104c.406-1.341.674-2.828.674-4.175.001-5.111-3.903-9.287-9.555-9.287zm83.448 41.454h-18.841c-5.114 0-8.344 3.1-8.344 7.806 0 4.713 3.23 7.814 8.344 7.814h6.193c.538 0 .803.258.803.803 0 3.505-.265 6.598-1.075 9.014-1.882 5.796-7.67 9.426-14.669 9.426-7.943 0-12.921-3.903-14.939-10.096-1.075-3.365-1.48-7.8-1.48-19.648 0-11.842.405-16.15 1.48-19.516 2.018-6.325 6.867-10.228 14.67-10.228 5.924 0 10.362 1.885 13.859 6.724 2.695 3.777 5.387 4.852 8.749 4.852 4.981 0 9.021-3.638 9.021-8.888 0-2.151-.674-4.035-1.752-5.921-4.842-8.204-15.071-14.264-29.877-14.264-16.287 0-28.935 7.408-33.644 22.204-2.022 6.466-2.559 11.576-2.559 25.038 0 13.454.538 18.573 2.559 25.031 4.709 14.802 17.357 22.204 33.644 22.204 16.286 0 28.668-8.204 33.374-22.881 1.617-5.111 2.29-12.645 2.29-20.716v-.95c0-4.98-2.824-7.808-7.806-7.808z"/></symbol><symbol viewBox="0 0 0 0" id="csprite" xmlns="http://www.w3.org/2000/svg"><symbol viewBox="0 0 1500 1500" clip-rule="evenodd" stroke-linecap="round" stroke-linejoin="round" id="ccdesigned"><g xmlns:vectornator="http://vectornator.io" vectornator:layerName="レイヤー 1 コピー"><path d="M281.298 1217.02c0-42.34 144.717-76.66 323.234-76.66 178.518 0 323.235 34.32 323.235 76.66 0 42.34-4.289 114.12-321.66 115.11-323.382 1-324.809-72.77-324.809-115.11z"/><path d="M885.373 1312.29c9.787 6.03 63.57 6.51 110.783 7.19 20.944.3 25.104.79 49.994 1.58 78 2.48 110.84 6.97 163.19-13.22 59.94-23.12 98.8-44.4 98.8-44.4s34.59-17.54 57.41-32.32c22.82-14.78-25.33-15.56-69.15-21.09-45.71-5.77-115.14-10.81-115.14-10.81s-13.65-1.46-43.54 7.15c-21.07 6.07-69.53 23.05-59.78 26.89 12.83 5.04 51.25 5.96 80.69 7.37 24.71 1.18 41.7 4.2 33.23 8.79-23 12.47-63.45 28.61-98.94 27.38-45.51-1.58-33.15-.45-92.924-3.75-36.74-2.04-42.688 3.37-68.977 11.89-31.097 10.08-59.775 18.63-45.646 27.35zm241.567-878.196c-2.04-.177-4.12.052-6.1.718l-95 32a14.997 14.997 0 00-10.12 12.719c-.06.574-7.38 72.833-7.44 73.407a15.027 15.027 0 008.16 14.906c.09.049 7.27 3.761 10.12 5.281 8.19 4.355 17.4 9.378 27.35 15 28.42 16.064 57.26 33.682 84.71 52.25 29.22 19.758 45.32 32.297 56.66 45.125 12.42 14.037 16.74 26.313 13.88 39.594-2.05 9.465-3.58 19.792-5.82 37.875-.24 2.003-2.44 19.891-2.9 23.406-3.22 24.429-6.43 40.838-10.91 53.281-4.48 12.445-9.18 18.019-13.5 18.625-14.38 2.019-29.52-1.166-44.12-7.812a105.668 105.668 0 01-11.1-5.844 76.818 76.818 0 01-2.87-1.813c-.43-.287-1.04-.74-1.19-.843l-72.44-49.094a15.012 15.012 0 00-12.37-2.063L952 812.625a15.006 15.006 0 00-10.688 11.219l-18.156 81.562a15.039 15.039 0 005.25 14.969c.09.072 5.247 4.179 7.282 5.781a1860.05 1860.05 0 0019.5 15.125c20.425 15.649 41.632 31.31 62.532 45.938 8.75 6.122 17.26 11.953 25.53 17.441 33.61 22.29 61.55 38.12 82.56 45.9 42.86 15.87 94.61 14.43 138.91-3.97 48.55-20.16 83.85-58.453 96.44-109.684 5.62-22.899 12.37-53.043 20.12-89.406 1.57-7.384 3.17-14.971 4.81-22.812 5.11-24.385 10.41-50.169 16.1-78.344 2.15-10.657 11.12-55.507 11.9-59.406 5.23-26.08-1.94-51.552-19.03-75.969-13.42-19.184-32.5-37.174-56.59-54.969-15.21-11.235-27-18.822-50.85-33.438-12.91-7.912-37.26-21.795-70.03-40.031-.91-.509-39.93-22.118-59.15-32.656-6.73-3.688-25.55-13.987-25.63-14.031a14.977 14.977 0 00-5.87-1.75zm-2.75 31.25c5.36 2.926 14.63 7.987 19.84 10.844a10496.158 10496.158 0 0159 32.562c32.39 18.026 56.51 31.759 68.94 39.375 23.13 14.176 34.38 21.438 48.69 32 47.02 34.729 70.55 68.348 64.03 100.937-.78 3.907-9.76 48.706-11.91 59.344-5.67 28.108-10.94 53.821-16.03 78.125-1.64 7.809-3.25 15.369-4.81 22.719-7.69 36.085-14.4 65.958-19.94 88.5-10.21 41.562-38.7 72.51-78.78 89.16-37.39 15.52-81.29 16.73-116.97 3.53-18.29-6.77-44.59-21.68-76.41-42.784-8.05-5.341-16.38-11.046-24.93-17.031-20.52-14.356-41.366-29.752-61.472-45.156-6.956-5.329-13.319-10.24-18.969-14.688l14.156-63.562 64.565-17.657 66.28 44.938c.36.266.93.645 1.69 1.156 1.17.792 2.52 1.673 4.03 2.594 4.23 2.581 9.03 5.142 14.28 7.531 19.36 8.814 39.94 13.105 60.72 10.188 9.64-1.354 17.86-6.299 24.47-14.063 5.33-6.272 9.57-14.306 13.09-24.094 5.4-15.02 8.96-33.096 12.44-59.531.47-3.607 2.69-21.643 2.93-23.625 2.13-17.207 3.56-26.911 5.35-35.218 5.1-23.642-2.48-45.184-20.72-65.813-13.54-15.309-31.07-28.963-62.31-50.094-28.18-19.058-57.7-37.066-86.78-53.5a1256.313 1256.313 0 00-28-15.375c-.42-.22-.94-.484-1.5-.781l5.43-53.719 79.6-26.812z"/><path d="M955.125 827.469a15.015 15.015 0 00-12.625 6.281c-4.824 6.735-3.297 16.082 3.438 20.906a1820.543 1820.543 0 0024.906 17.375c18.962 12.982 38.616 25.96 57.906 38.094 7.39 4.648 14.59 9.072 21.59 13.281 13.9 8.351 26.82 15.713 38.57 21.875 33.75 17.714 64.58 12.076 88.03-12.093 17.39-17.928 29.82-45.377 35.68-73.657 1.69-8.111-3.54-16.035-11.65-17.719-8.11-1.683-16.04 3.514-17.72 11.626-4.81 23.165-14.95 45.582-27.84 58.874-14.37 14.811-30.83 17.815-52.57 6.407-11.18-5.87-23.6-12.929-37.03-21-6.82-4.101-13.87-8.457-21.09-13-18.93-11.908-38.24-24.692-56.908-37.469a1860.334 1860.334 0 01-17.843-12.344c-1.852-1.3-6.496-4.577-6.563-4.625-2.525-1.809-5.393-2.733-8.281-2.812z"/><g stroke="#000" stroke-width="30" fill="none"><path d="M768.511 221.166c55.019 178.733 206.044 511.574 121.56 637.748-64.475 96.291-124.019 126.456-228.774 162.716-107.596 26.68-173.96 33.83-280.493-11.77-139.592-59.764-194.328-421.145-245.588-600.992C83.955 229.02 713.492 42.432 768.511 221.166z"/><path d="M188.928 396.113c-15.389-51.828 90.195-128.783 235.83-171.883 145.634-43.1 276.169-36.024 291.558 15.804 15.39 51.828-90.195 128.783-235.83 171.883-145.634 43.1-276.169 36.024-291.558-15.804z"/></g><path d="M1041.06 478.281a15.01 15.01 0 00-12.09 7.25c-4.28 7.092-2 16.312 5.09 20.594l171.82 103.75c7.09 4.282 16.31 1.998 20.59-5.094 4.28-7.091 2-16.311-5.09-20.593l-171.82-103.75a14.925 14.925 0 00-8.5-2.157z"/></g></symbol><symbol viewBox="0 0 512 512" id="ccpost2"><path class="ccbst0" d="M378.409 0H195.118l-9.314 9.315L57.017 138.101l-9.314 9.315v278.689c0 47.36 38.528 85.896 85.895 85.896h244.811c47.361 0 85.888-38.535 85.888-85.896V85.896C464.297 38.528 425.77 0 378.409 0zm54.084 426.104c0 29.877-24.214 54.091-54.084 54.091H133.598c-29.877 0-54.091-24.214-54.091-54.091V160.592h83.717c24.884 0 45.07-20.179 45.07-45.071V31.804h170.114c29.87 0 54.084 24.214 54.084 54.091v340.209z"/><path class="ccbst0" d="M180.296 296.668l-4.846-.67c-10.63-1.487-14.265-4.978-14.265-10.104 0-5.78 4.309-9.817 12.383-9.817 5.653 0 11.305 1.62 15.745 3.764 1.886.942 3.903 1.487 5.789 1.487 4.845 0 8.612-3.63 8.612-8.616 0-3.226-1.481-5.921-4.71-7.939-5.384-3.372-15.476-6.06-25.572-6.06-19.781 0-32.436 11.171-32.436 27.998 0 16.15 10.232 24.898 28.938 27.454l4.846.67c10.903 1.48 14.129 4.846 14.129 10.229 0 6.326-5.247 10.766-14.939 10.766-6.727 0-12.111-1.745-19.645-5.921-1.616-.942-3.634-1.62-5.788-1.62-5.115 0-8.885 3.91-8.885 8.756 0 3.226 1.616 6.326 4.713 8.344 6.054 3.764 15.878 7.8 28.798 7.8 23.823 0 35.934-12.24 35.934-28.795 0-16.554-9.824-25.038-28.801-27.726zm100.812-37.286c-4.577 0-7.939 2.43-9.556 7.674l-16.69 54.51h-.402l-17.634-54.51c-1.745-5.244-4.978-7.674-9.551-7.674-5.653 0-9.692 4.176-9.692 9.287 0 1.347.269 2.834.67 4.175l23.286 68.104c2.96 8.477 6.727 11.57 12.652 11.57 5.785 0 9.555-3.093 12.516-11.57l23.282-68.104c.406-1.341.674-2.828.674-4.175.001-5.111-3.903-9.287-9.555-9.287zm83.448 41.454h-18.841c-5.114 0-8.344 3.1-8.344 7.806 0 4.713 3.23 7.814 8.344 7.814h6.193c.538 0 .803.258.803.803 0 3.505-.265 6.598-1.075 9.014-1.882 5.796-7.67 9.426-14.669 9.426-7.943 0-12.921-3.903-14.939-10.096-1.075-3.365-1.48-7.8-1.48-19.648 0-11.842.405-16.15 1.48-19.516 2.018-6.325 6.867-10.228 14.67-10.228 5.924 0 10.362 1.885 13.859 6.724 2.695 3.777 5.387 4.852 8.749 4.852 4.981 0 9.021-3.638 9.021-8.888 0-2.151-.674-4.035-1.752-5.921-4.842-8.204-15.071-14.264-29.877-14.264-16.287 0-28.935 7.408-33.644 22.204-2.022 6.466-2.559 11.576-2.559 25.038 0 13.454.538 18.573 2.559 25.031 4.709 14.802 17.357 22.204 33.644 22.204 16.286 0 28.668-8.204 33.374-22.881 1.617-5.111 2.29-12.645 2.29-20.716v-.95c0-4.98-2.824-7.808-7.806-7.808z"/></symbol><symbol viewBox="0 0 0 0" id="ccsprite"><symbol viewBox="0 0 1500 1500" clip-rule="evenodd" stroke-linecap="round" stroke-linejoin="round" id="cccdesigned"><g xmlns:vectornator="http://vectornator.io" vectornator:layerName="レイヤー 1"><path d="M281.298 1217.02c0-42.34 144.717-76.66 323.234-76.66 178.518 0 323.235 34.32 323.235 76.66 0 42.34-4.289 114.12-321.66 115.11-323.382 1-324.809-72.77-324.809-115.11z"/><path d="M885.373 1312.29c9.787 6.03 63.57 6.51 110.783 7.19 20.944.3 25.104.79 49.994 1.58 78 2.48 110.84 6.97 163.19-13.22 59.94-23.12 98.8-44.4 98.8-44.4s34.59-17.54 57.41-32.32c22.82-14.78-25.33-15.56-69.15-21.09-45.71-5.77-115.14-10.81-115.14-10.81s-13.65-1.46-43.54 7.15c-21.07 6.07-69.53 23.05-59.78 26.89 12.83 5.04 51.25 5.96 80.69 7.37 24.71 1.18 41.7 4.2 33.23 8.79-23 12.47-63.45 28.61-98.94 27.38-45.51-1.58-33.15-.45-92.924-3.75-36.74-2.04-42.688 3.37-68.977 11.89-31.097 10.08-59.775 18.63-45.646 27.35z"/><path stroke="#000" stroke-width="30" d="M1023.21 554.456s60.23 30.496 123.81 73.498c47.79 32.316 85.24 61.171 76.79 100.316-9.92 45.936-8.93 139.69-45.71 144.853-37.11 5.209-69.75-18.725-69.75-18.725l-72.46-49.116-79.941 21.827-18.157 81.563S1067.49 1012.98 1131.03 1036.5c78.03 28.88 191.3-4.5 215.55-103.166 17.23-70.12 42.59-198.327 52.8-249.334 13.55-67.696-76.88-122.496-119.58-148.662-35.18-21.563-154.17-86.305-154.17-86.305l-95 32-7.42 73.423z" fill="none"/><path stroke="#000" stroke-width="30" d="M954.685 842.469s80.615 57.739 141.175 89.518c60.56 31.778 92.89-31.253 102.08-75.501" fill="none"/><g stroke="#000" stroke-width="30" fill="none"><path d="M768.511 221.166c55.019 178.733 206.044 511.574 121.56 637.748-64.475 96.291-124.019 126.456-228.774 162.716-107.596 26.68-173.96 33.83-280.493-11.77-139.592-59.764-194.328-421.145-245.588-600.992C83.955 229.02 713.492 42.432 768.511 221.166z"/><path d="M188.928 396.113c-15.389-51.828 90.195-128.783 235.83-171.883 145.634-43.1 276.169-36.024 291.558 15.804 15.39 51.828-90.195 128.783-235.83 171.883-145.634 43.1-276.169 36.024-291.558-15.804z"/></g><path stroke="#000" stroke-width="30" d="M1041.81 493.27l171.82 103.763" fill="none"/></g></symbol><symbol viewBox="0 0 512 512" id="cccpost2"><path class="cccbst0" d="M378.409 0H195.118l-9.314 9.315L57.017 138.101l-9.314 9.315v278.689c0 47.36 38.528 85.896 85.895 85.896h244.811c47.361 0 85.888-38.535 85.888-85.896V85.896C464.297 38.528 425.77 0 378.409 0zm54.084 426.104c0 29.877-24.214 54.091-54.084 54.091H133.598c-29.877 0-54.091-24.214-54.091-54.091V160.592h83.717c24.884 0 45.07-20.179 45.07-45.071V31.804h170.114c29.87 0 54.084 24.214 54.084 54.091v340.209z"/><path class="cccbst0" d="M180.296 296.668l-4.846-.67c-10.63-1.487-14.265-4.978-14.265-10.104 0-5.78 4.309-9.817 12.383-9.817 5.653 0 11.305 1.62 15.745 3.764 1.886.942 3.903 1.487 5.789 1.487 4.845 0 8.612-3.63 8.612-8.616 0-3.226-1.481-5.921-4.71-7.939-5.384-3.372-15.476-6.06-25.572-6.06-19.781 0-32.436 11.171-32.436 27.998 0 16.15 10.232 24.898 28.938 27.454l4.846.67c10.903 1.48 14.129 4.846 14.129 10.229 0 6.326-5.247 10.766-14.939 10.766-6.727 0-12.111-1.745-19.645-5.921-1.616-.942-3.634-1.62-5.788-1.62-5.115 0-8.885 3.91-8.885 8.756 0 3.226 1.616 6.326 4.713 8.344 6.054 3.764 15.878 7.8 28.798 7.8 23.823 0 35.934-12.24 35.934-28.795 0-16.554-9.824-25.038-28.801-27.726zm100.812-37.286c-4.577 0-7.939 2.43-9.556 7.674l-16.69 54.51h-.402l-17.634-54.51c-1.745-5.244-4.978-7.674-9.551-7.674-5.653 0-9.692 4.176-9.692 9.287 0 1.347.269 2.834.67 4.175l23.286 68.104c2.96 8.477 6.727 11.57 12.652 11.57 5.785 0 9.555-3.093 12.516-11.57l23.282-68.104c.406-1.341.674-2.828.674-4.175.001-5.111-3.903-9.287-9.555-9.287zm83.448 41.454h-18.841c-5.114 0-8.344 3.1-8.344 7.806 0 4.713 3.23 7.814 8.344 7.814h6.193c.538 0 .803.258.803.803 0 3.505-.265 6.598-1.075 9.014-1.882 5.796-7.67 9.426-14.669 9.426-7.943 0-12.921-3.903-14.939-10.096-1.075-3.365-1.48-7.8-1.48-19.648 0-11.842.405-16.15 1.48-19.516 2.018-6.325 6.867-10.228 14.67-10.228 5.924 0 10.362 1.885 13.859 6.724 2.695 3.777 5.387 4.852 8.749 4.852 4.981 0 9.021-3.638 9.021-8.888 0-2.151-.674-4.035-1.752-5.921-4.842-8.204-15.071-14.264-29.877-14.264-16.287 0-28.935 7.408-33.644 22.204-2.022 6.466-2.559 11.576-2.559 25.038 0 13.454.538 18.573 2.559 25.031 4.709 14.802 17.357 22.204 33.644 22.204 16.286 0 28.668-8.204 33.374-22.881 1.617-5.111 2.29-12.645 2.29-20.716v-.95c0-4.98-2.824-7.808-7.806-7.808z"/></symbol><symbol viewBox="0 0 0 0" id="cccsprite"><symbol viewBox="0 0 512 512" id="ccccpost2"><path class="ccccast0" d="M378.409 0H195.118l-9.314 9.315L57.017 138.101l-9.314 9.315v278.689c0 47.36 38.528 85.896 85.895 85.896h244.811c47.361 0 85.888-38.535 85.888-85.896V85.896C464.297 38.528 425.77 0 378.409 0zm54.084 426.104c0 29.877-24.214 54.091-54.084 54.091H133.598c-29.877 0-54.091-24.214-54.091-54.091V160.592h83.717c24.884 0 45.07-20.179 45.07-45.071V31.804h170.114c29.87 0 54.084 24.214 54.084 54.091v340.209z"/><path class="ccccast0" d="M180.296 296.668l-4.846-.67c-10.63-1.487-14.265-4.978-14.265-10.104 0-5.78 4.309-9.817 12.383-9.817 5.653 0 11.305 1.62 15.745 3.764 1.886.942 3.903 1.487 5.789 1.487 4.845 0 8.612-3.63 8.612-8.616 0-3.226-1.481-5.921-4.71-7.939-5.384-3.372-15.476-6.06-25.572-6.06-19.781 0-32.436 11.171-32.436 27.998 0 16.15 10.232 24.898 28.938 27.454l4.846.67c10.903 1.48 14.129 4.846 14.129 10.229 0 6.326-5.247 10.766-14.939 10.766-6.727 0-12.111-1.745-19.645-5.921-1.616-.942-3.634-1.62-5.788-1.62-5.115 0-8.885 3.91-8.885 8.756 0 3.226 1.616 6.326 4.713 8.344 6.054 3.764 15.878 7.8 28.798 7.8 23.823 0 35.934-12.24 35.934-28.795 0-16.554-9.824-25.038-28.801-27.726zm100.812-37.286c-4.577 0-7.939 2.43-9.556 7.674l-16.69 54.51h-.402l-17.634-54.51c-1.745-5.244-4.978-7.674-9.551-7.674-5.653 0-9.692 4.176-9.692 9.287 0 1.347.269 2.834.67 4.175l23.286 68.104c2.96 8.477 6.727 11.57 12.652 11.57 5.785 0 9.555-3.093 12.516-11.57l23.282-68.104c.406-1.341.674-2.828.674-4.175.001-5.111-3.903-9.287-9.555-9.287zm83.448 41.454h-18.841c-5.114 0-8.344 3.1-8.344 7.806 0 4.713 3.23 7.814 8.344 7.814h6.193c.538 0 .803.258.803.803 0 3.505-.265 6.598-1.075 9.014-1.882 5.796-7.67 9.426-14.669 9.426-7.943 0-12.921-3.903-14.939-10.096-1.075-3.365-1.48-7.8-1.48-19.648 0-11.842.405-16.15 1.48-19.516 2.018-6.325 6.867-10.228 14.67-10.228 5.924 0 10.362 1.885 13.859 6.724 2.695 3.777 5.387 4.852 8.749 4.852 4.981 0 9.021-3.638 9.021-8.888 0-2.151-.674-4.035-1.752-5.921-4.842-8.204-15.071-14.264-29.877-14.264-16.287 0-28.935 7.408-33.644 22.204-2.022 6.466-2.559 11.576-2.559 25.038 0 13.454.538 18.573 2.559 25.031 4.709 14.802 17.357 22.204 33.644 22.204 16.286 0 28.668-8.204 33.374-22.881 1.617-5.111 2.29-12.645 2.29-20.716v-.95c0-4.98-2.824-7.808-7.806-7.808z"/></symbol><symbol viewBox="0 0 0 0" id="ccccsprite"><symbol viewBox="0 0 512 512" id="ccccbpost2"><path class="ccccbast0" d="M378.409 0H195.118l-9.314 9.315L57.017 138.101l-9.314 9.315v278.689c0 47.36 38.528 85.896 85.895 85.896h244.811c47.361 0 85.888-38.535 85.888-85.896V85.896C464.297 38.528 425.77 0 378.409 0zm54.084 426.104c0 29.877-24.214 54.091-54.084 54.091H133.598c-29.877 0-54.091-24.214-54.091-54.091V160.592h83.717c24.884 0 45.07-20.179 45.07-45.071V31.804h170.114c29.87 0 54.084 24.214 54.084 54.091v340.209z" fill="#4b4b4b"/><path class="ccccbast0" d="M180.296 296.668l-4.846-.67c-10.63-1.487-14.265-4.978-14.265-10.104 0-5.78 4.309-9.817 12.383-9.817 5.653 0 11.305 1.62 15.745 3.764 1.886.942 3.903 1.487 5.789 1.487 4.845 0 8.612-3.63 8.612-8.616 0-3.226-1.481-5.921-4.71-7.939-5.384-3.372-15.476-6.06-25.572-6.06-19.781 0-32.436 11.171-32.436 27.998 0 16.15 10.232 24.898 28.938 27.454l4.846.67c10.903 1.48 14.129 4.846 14.129 10.229 0 6.326-5.247 10.766-14.939 10.766-6.727 0-12.111-1.745-19.645-5.921-1.616-.942-3.634-1.62-5.788-1.62-5.115 0-8.885 3.91-8.885 8.756 0 3.226 1.616 6.326 4.713 8.344 6.054 3.764 15.878 7.8 28.798 7.8 23.823 0 35.934-12.24 35.934-28.795 0-16.554-9.824-25.038-28.801-27.726zm100.812-37.286c-4.577 0-7.939 2.43-9.556 7.674l-16.69 54.51h-.402l-17.634-54.51c-1.745-5.244-4.978-7.674-9.551-7.674-5.653 0-9.692 4.176-9.692 9.287 0 1.347.269 2.834.67 4.175l23.286 68.104c2.96 8.477 6.727 11.57 12.652 11.57 5.785 0 9.555-3.093 12.516-11.57l23.282-68.104c.406-1.341.674-2.828.674-4.175.001-5.111-3.903-9.287-9.555-9.287zm83.448 41.454h-18.841c-5.114 0-8.344 3.1-8.344 7.806 0 4.713 3.23 7.814 8.344 7.814h6.193c.538 0 .803.258.803.803 0 3.505-.265 6.598-1.075 9.014-1.882 5.796-7.67 9.426-14.669 9.426-7.943 0-12.921-3.903-14.939-10.096-1.075-3.365-1.48-7.8-1.48-19.648 0-11.842.405-16.15 1.48-19.516 2.018-6.325 6.867-10.228 14.67-10.228 5.924 0 10.362 1.885 13.859 6.724 2.695 3.777 5.387 4.852 8.749 4.852 4.981 0 9.021-3.638 9.021-8.888 0-2.151-.674-4.035-1.752-5.921-4.842-8.204-15.071-14.264-29.877-14.264-16.287 0-28.935 7.408-33.644 22.204-2.022 6.466-2.559 11.576-2.559 25.038 0 13.454.538 18.573 2.559 25.031 4.709 14.802 17.357 22.204 33.644 22.204 16.286 0 28.668-8.204 33.374-22.881 1.617-5.111 2.29-12.645 2.29-20.716v-.95c0-4.98-2.824-7.808-7.806-7.808z" fill="#4b4b4b"/></symbol><symbol viewBox="0 0 0 0" id="ccccbsprite"><symbol viewBox="0 0 512 512" style="width:256px;height:256px" id="ccccbbpost2"><path class="ccccbbast0" d="M378.409 0H195.118l-9.314 9.315L57.017 138.101l-9.314 9.315v278.689c0 47.36 38.528 85.896 85.895 85.896h244.811c47.361 0 85.888-38.535 85.888-85.896V85.896C464.297 38.528 425.77 0 378.409 0zm54.084 426.104c0 29.877-24.214 54.091-54.084 54.091H133.598c-29.877 0-54.091-24.214-54.091-54.091V160.592h83.717c24.884 0 45.07-20.179 45.07-45.071V31.804h170.114c29.87 0 54.084 24.214 54.084 54.091v340.209z" fill="#4b4b4b"/><path class="ccccbbast0" d="M180.296 296.668l-4.846-.67c-10.63-1.487-14.265-4.978-14.265-10.104 0-5.78 4.309-9.817 12.383-9.817 5.653 0 11.305 1.62 15.745 3.764 1.886.942 3.903 1.487 5.789 1.487 4.845 0 8.612-3.63 8.612-8.616 0-3.226-1.481-5.921-4.71-7.939-5.384-3.372-15.476-6.06-25.572-6.06-19.781 0-32.436 11.171-32.436 27.998 0 16.15 10.232 24.898 28.938 27.454l4.846.67c10.903 1.48 14.129 4.846 14.129 10.229 0 6.326-5.247 10.766-14.939 10.766-6.727 0-12.111-1.745-19.645-5.921-1.616-.942-3.634-1.62-5.788-1.62-5.115 0-8.885 3.91-8.885 8.756 0 3.226 1.616 6.326 4.713 8.344 6.054 3.764 15.878 7.8 28.798 7.8 23.823 0 35.934-12.24 35.934-28.795 0-16.554-9.824-25.038-28.801-27.726zm100.812-37.286c-4.577 0-7.939 2.43-9.556 7.674l-16.69 54.51h-.402l-17.634-54.51c-1.745-5.244-4.978-7.674-9.551-7.674-5.653 0-9.692 4.176-9.692 9.287 0 1.347.269 2.834.67 4.175l23.286 68.104c2.96 8.477 6.727 11.57 12.652 11.57 5.785 0 9.555-3.093 12.516-11.57l23.282-68.104c.406-1.341.674-2.828.674-4.175.001-5.111-3.903-9.287-9.555-9.287zm83.448 41.454h-18.841c-5.114 0-8.344 3.1-8.344 7.806 0 4.713 3.23 7.814 8.344 7.814h6.193c.538 0 .803.258.803.803 0 3.505-.265 6.598-1.075 9.014-1.882 5.796-7.67 9.426-14.669 9.426-7.943 0-12.921-3.903-14.939-10.096-1.075-3.365-1.48-7.8-1.48-19.648 0-11.842.405-16.15 1.48-19.516 2.018-6.325 6.867-10.228 14.67-10.228 5.924 0 10.362 1.885 13.859 6.724 2.695 3.777 5.387 4.852 8.749 4.852 4.981 0 9.021-3.638 9.021-8.888 0-2.151-.674-4.035-1.752-5.921-4.842-8.204-15.071-14.264-29.877-14.264-16.287 0-28.935 7.408-33.644 22.204-2.022 6.466-2.559 11.576-2.559 25.038 0 13.454.538 18.573 2.559 25.031 4.709 14.802 17.357 22.204 33.644 22.204 16.286 0 28.668-8.204 33.374-22.881 1.617-5.111 2.29-12.645 2.29-20.716v-.95c0-4.98-2.824-7.808-7.806-7.808z" fill="#4b4b4b"/></symbol><symbol viewBox="0 0 0 0" id="ccccbbsprite"><symbol viewBox="0 0 0 0" id="ccccbbbsprite"><symbol id="ccccbbbatest" viewBox="0 0 512 512" style="width:256px;height:256px" xml:space="preserve" opacity="1"><style>.ccccbbbaast0{fill:#4b4b4b}</style><path class="ccccbbbaast0" d="M378.409 0H195.118l-9.314 9.315L57.017 138.101l-9.314 9.315v278.689c0 47.36 38.528 85.896 85.895 85.896h244.811c47.361 0 85.888-38.535 85.888-85.896V85.896C464.297 38.528 425.77 0 378.409 0zm54.084 426.104c0 29.877-24.214 54.091-54.084 54.091H133.598c-29.877 0-54.091-24.214-54.091-54.091V160.592h83.717c24.884 0 45.07-20.179 45.07-45.071V31.804h170.114c29.87 0 54.084 24.214 54.084 54.091v340.209z" fill="#4b4b4b"/><path class="ccccbbbaast0" d="M180.296 296.668l-4.846-.67c-10.63-1.487-14.265-4.978-14.265-10.104 0-5.78 4.309-9.817 12.383-9.817 5.653 0 11.305 1.62 15.745 3.764 1.886.942 3.903 1.487 5.789 1.487 4.845 0 8.612-3.63 8.612-8.616 0-3.226-1.481-5.921-4.71-7.939-5.384-3.372-15.476-6.06-25.572-6.06-19.781 0-32.436 11.171-32.436 27.998 0 16.15 10.232 24.898 28.938 27.454l4.846.67c10.903 1.48 14.129 4.846 14.129 10.229 0 6.326-5.247 10.766-14.939 10.766-6.727 0-12.111-1.745-19.645-5.921-1.616-.942-3.634-1.62-5.788-1.62-5.115 0-8.885 3.91-8.885 8.756 0 3.226 1.616 6.326 4.713 8.344 6.054 3.764 15.878 7.8 28.798 7.8 23.823 0 35.934-12.24 35.934-28.795 0-16.554-9.824-25.038-28.801-27.726zm100.812-37.286c-4.577 0-7.939 2.43-9.556 7.674l-16.69 54.51h-.402l-17.634-54.51c-1.745-5.244-4.978-7.674-9.551-7.674-5.653 0-9.692 4.176-9.692 9.287 0 1.347.269 2.834.67 4.175l23.286 68.104c2.96 8.477 6.727 11.57 12.652 11.57 5.785 0 9.555-3.093 12.516-11.57l23.282-68.104c.406-1.341.674-2.828.674-4.175.001-5.111-3.903-9.287-9.555-9.287zm83.448 41.454h-18.841c-5.114 0-8.344 3.1-8.344 7.806 0 4.713 3.23 7.814 8.344 7.814h6.193c.538 0 .803.258.803.803 0 3.505-.265 6.598-1.075 9.014-1.882 5.796-7.67 9.426-14.669 9.426-7.943 0-12.921-3.903-14.939-10.096-1.075-3.365-1.48-7.8-1.48-19.648 0-11.842.405-16.15 1.48-19.516 2.018-6.325 6.867-10.228 14.67-10.228 5.924 0 10.362 1.885 13.859 6.724 2.695 3.777 5.387 4.852 8.749 4.852 4.981 0 9.021-3.638 9.021-8.888 0-2.151-.674-4.035-1.752-5.921-4.842-8.204-15.071-14.264-29.877-14.264-16.287 0-28.935 7.408-33.644 22.204-2.022 6.466-2.559 11.576-2.559 25.038 0 13.454.538 18.573 2.559 25.031 4.709 14.802 17.357 22.204 33.644 22.204 16.286 0 28.668-8.204 33.374-22.881 1.617-5.111 2.29-12.645 2.29-20.716v-.95c0-4.98-2.824-7.808-7.806-7.808z" fill="#4b4b4b"/></symbol></symbol><symbol id="ccccbbbtest" viewBox="0 0 512 512" style="width:256px;height:256px" xml:space="preserve" opacity="1"><style>.ccccbbbbst0{fill:#4b4b4b}</style><path class="ccccbbbbst0" d="M378.409 0H195.118l-9.314 9.315L57.017 138.101l-9.314 9.315v278.689c0 47.36 38.528 85.896 85.895 85.896h244.811c47.361 0 85.888-38.535 85.888-85.896V85.896C464.297 38.528 425.77 0 378.409 0zm54.084 426.104c0 29.877-24.214 54.091-54.084 54.091H133.598c-29.877 0-54.091-24.214-54.091-54.091V160.592h83.717c24.884 0 45.07-20.179 45.07-45.071V31.804h170.114c29.87 0 54.084 24.214 54.084 54.091v340.209z" fill="#4b4b4b"/><path class="ccccbbbbst0" d="M180.296 296.668l-4.846-.67c-10.63-1.487-14.265-4.978-14.265-10.104 0-5.78 4.309-9.817 12.383-9.817 5.653 0 11.305 1.62 15.745 3.764 1.886.942 3.903 1.487 5.789 1.487 4.845 0 8.612-3.63 8.612-8.616 0-3.226-1.481-5.921-4.71-7.939-5.384-3.372-15.476-6.06-25.572-6.06-19.781 0-32.436 11.171-32.436 27.998 0 16.15 10.232 24.898 28.938 27.454l4.846.67c10.903 1.48 14.129 4.846 14.129 10.229 0 6.326-5.247 10.766-14.939 10.766-6.727 0-12.111-1.745-19.645-5.921-1.616-.942-3.634-1.62-5.788-1.62-5.115 0-8.885 3.91-8.885 8.756 0 3.226 1.616 6.326 4.713 8.344 6.054 3.764 15.878 7.8 28.798 7.8 23.823 0 35.934-12.24 35.934-28.795 0-16.554-9.824-25.038-28.801-27.726zm100.812-37.286c-4.577 0-7.939 2.43-9.556 7.674l-16.69 54.51h-.402l-17.634-54.51c-1.745-5.244-4.978-7.674-9.551-7.674-5.653 0-9.692 4.176-9.692 9.287 0 1.347.269 2.834.67 4.175l23.286 68.104c2.96 8.477 6.727 11.57 12.652 11.57 5.785 0 9.555-3.093 12.516-11.57l23.282-68.104c.406-1.341.674-2.828.674-4.175.001-5.111-3.903-9.287-9.555-9.287zm83.448 41.454h-18.841c-5.114 0-8.344 3.1-8.344 7.806 0 4.713 3.23 7.814 8.344 7.814h6.193c.538 0 .803.258.803.803 0 3.505-.265 6.598-1.075 9.014-1.882 5.796-7.67 9.426-14.669 9.426-7.943 0-12.921-3.903-14.939-10.096-1.075-3.365-1.48-7.8-1.48-19.648 0-11.842.405-16.15 1.48-19.516 2.018-6.325 6.867-10.228 14.67-10.228 5.924 0 10.362 1.885 13.859 6.724 2.695 3.777 5.387 4.852 8.749 4.852 4.981 0 9.021-3.638 9.021-8.888 0-2.151-.674-4.035-1.752-5.921-4.842-8.204-15.071-14.264-29.877-14.264-16.287 0-28.935 7.408-33.644 22.204-2.022 6.466-2.559 11.576-2.559 25.038 0 13.454.538 18.573 2.559 25.031 4.709 14.802 17.357 22.204 33.644 22.204 16.286 0 28.668-8.204 33.374-22.881 1.617-5.111 2.29-12.645 2.29-20.716v-.95c0-4.98-2.824-7.808-7.806-7.808z" fill="#4b4b4b"/></symbol></symbol><symbol viewBox="0 0 512 512" style="width:256px;height:256px" id="ccccbbtest"><path class="ccccbbcst0" d="M378.409 0H195.118l-9.314 9.315L57.017 138.101l-9.314 9.315v278.689c0 47.36 38.528 85.896 85.895 85.896h244.811c47.361 0 85.888-38.535 85.888-85.896V85.896C464.297 38.528 425.77 0 378.409 0zm54.084 426.104c0 29.877-24.214 54.091-54.084 54.091H133.598c-29.877 0-54.091-24.214-54.091-54.091V160.592h83.717c24.884 0 45.07-20.179 45.07-45.071V31.804h170.114c29.87 0 54.084 24.214 54.084 54.091v340.209z" fill="#4b4b4b"/><path class="ccccbbcst0" d="M180.296 296.668l-4.846-.67c-10.63-1.487-14.265-4.978-14.265-10.104 0-5.78 4.309-9.817 12.383-9.817 5.653 0 11.305 1.62 15.745 3.764 1.886.942 3.903 1.487 5.789 1.487 4.845 0 8.612-3.63 8.612-8.616 0-3.226-1.481-5.921-4.71-7.939-5.384-3.372-15.476-6.06-25.572-6.06-19.781 0-32.436 11.171-32.436 27.998 0 16.15 10.232 24.898 28.938 27.454l4.846.67c10.903 1.48 14.129 4.846 14.129 10.229 0 6.326-5.247 10.766-14.939 10.766-6.727 0-12.111-1.745-19.645-5.921-1.616-.942-3.634-1.62-5.788-1.62-5.115 0-8.885 3.91-8.885 8.756 0 3.226 1.616 6.326 4.713 8.344 6.054 3.764 15.878 7.8 28.798 7.8 23.823 0 35.934-12.24 35.934-28.795 0-16.554-9.824-25.038-28.801-27.726zm100.812-37.286c-4.577 0-7.939 2.43-9.556 7.674l-16.69 54.51h-.402l-17.634-54.51c-1.745-5.244-4.978-7.674-9.551-7.674-5.653 0-9.692 4.176-9.692 9.287 0 1.347.269 2.834.67 4.175l23.286 68.104c2.96 8.477 6.727 11.57 12.652 11.57 5.785 0 9.555-3.093 12.516-11.57l23.282-68.104c.406-1.341.674-2.828.674-4.175.001-5.111-3.903-9.287-9.555-9.287zm83.448 41.454h-18.841c-5.114 0-8.344 3.1-8.344 7.806 0 4.713 3.23 7.814 8.344 7.814h6.193c.538 0 .803.258.803.803 0 3.505-.265 6.598-1.075 9.014-1.882 5.796-7.67 9.426-14.669 9.426-7.943 0-12.921-3.903-14.939-10.096-1.075-3.365-1.48-7.8-1.48-19.648 0-11.842.405-16.15 1.48-19.516 2.018-6.325 6.867-10.228 14.67-10.228 5.924 0 10.362 1.885 13.859 6.724 2.695 3.777 5.387 4.852 8.749 4.852 4.981 0 9.021-3.638 9.021-8.888 0-2.151-.674-4.035-1.752-5.921-4.842-8.204-15.071-14.264-29.877-14.264-16.287 0-28.935 7.408-33.644 22.204-2.022 6.466-2.559 11.576-2.559 25.038 0 13.454.538 18.573 2.559 25.031 4.709 14.802 17.357 22.204 33.644 22.204 16.286 0 28.668-8.204 33.374-22.881 1.617-5.111 2.29-12.645 2.29-20.716v-.95c0-4.98-2.824-7.808-7.806-7.808z" fill="#4b4b4b"/></symbol></symbol><symbol viewBox="0 0 512 512" id="ccccbtest"><path class="ccccbcst0" d="M378.409 0H195.118l-9.314 9.315L57.017 138.101l-9.314 9.315v278.689c0 47.36 38.528 85.896 85.895 85.896h244.811c47.361 0 85.888-38.535 85.888-85.896V85.896C464.297 38.528 425.77 0 378.409 0zm54.084 426.104c0 29.877-24.214 54.091-54.084 54.091H133.598c-29.877 0-54.091-24.214-54.091-54.091V160.592h83.717c24.884 0 45.07-20.179 45.07-45.071V31.804h170.114c29.87 0 54.084 24.214 54.084 54.091v340.209z" fill="#4b4b4b"/><path class="ccccbcst0" d="M180.296 296.668l-4.846-.67c-10.63-1.487-14.265-4.978-14.265-10.104 0-5.78 4.309-9.817 12.383-9.817 5.653 0 11.305 1.62 15.745 3.764 1.886.942 3.903 1.487 5.789 1.487 4.845 0 8.612-3.63 8.612-8.616 0-3.226-1.481-5.921-4.71-7.939-5.384-3.372-15.476-6.06-25.572-6.06-19.781 0-32.436 11.171-32.436 27.998 0 16.15 10.232 24.898 28.938 27.454l4.846.67c10.903 1.48 14.129 4.846 14.129 10.229 0 6.326-5.247 10.766-14.939 10.766-6.727 0-12.111-1.745-19.645-5.921-1.616-.942-3.634-1.62-5.788-1.62-5.115 0-8.885 3.91-8.885 8.756 0 3.226 1.616 6.326 4.713 8.344 6.054 3.764 15.878 7.8 28.798 7.8 23.823 0 35.934-12.24 35.934-28.795 0-16.554-9.824-25.038-28.801-27.726zm100.812-37.286c-4.577 0-7.939 2.43-9.556 7.674l-16.69 54.51h-.402l-17.634-54.51c-1.745-5.244-4.978-7.674-9.551-7.674-5.653 0-9.692 4.176-9.692 9.287 0 1.347.269 2.834.67 4.175l23.286 68.104c2.96 8.477 6.727 11.57 12.652 11.57 5.785 0 9.555-3.093 12.516-11.57l23.282-68.104c.406-1.341.674-2.828.674-4.175.001-5.111-3.903-9.287-9.555-9.287zm83.448 41.454h-18.841c-5.114 0-8.344 3.1-8.344 7.806 0 4.713 3.23 7.814 8.344 7.814h6.193c.538 0 .803.258.803.803 0 3.505-.265 6.598-1.075 9.014-1.882 5.796-7.67 9.426-14.669 9.426-7.943 0-12.921-3.903-14.939-10.096-1.075-3.365-1.48-7.8-1.48-19.648 0-11.842.405-16.15 1.48-19.516 2.018-6.325 6.867-10.228 14.67-10.228 5.924 0 10.362 1.885 13.859 6.724 2.695 3.777 5.387 4.852 8.749 4.852 4.981 0 9.021-3.638 9.021-8.888 0-2.151-.674-4.035-1.752-5.921-4.842-8.204-15.071-14.264-29.877-14.264-16.287 0-28.935 7.408-33.644 22.204-2.022 6.466-2.559 11.576-2.559 25.038 0 13.454.538 18.573 2.559 25.031 4.709 14.802 17.357 22.204 33.644 22.204 16.286 0 28.668-8.204 33.374-22.881 1.617-5.111 2.29-12.645 2.29-20.716v-.95c0-4.98-2.824-7.808-7.806-7.808z" fill="#4b4b4b"/></symbol></symbol><symbol viewBox="0 0 512 512" id="cccctest"><path class="cccccst0" d="M378.409 0H195.118l-9.314 9.315L57.017 138.101l-9.314 9.315v278.689c0 47.36 38.528 85.896 85.895 85.896h244.811c47.361 0 85.888-38.535 85.888-85.896V85.896C464.297 38.528 425.77 0 378.409 0zm54.084 426.104c0 29.877-24.214 54.091-54.084 54.091H133.598c-29.877 0-54.091-24.214-54.091-54.091V160.592h83.717c24.884 0 45.07-20.179 45.07-45.071V31.804h170.114c29.87 0 54.084 24.214 54.084 54.091v340.209z"/><path class="cccccst0" d="M180.296 296.668l-4.846-.67c-10.63-1.487-14.265-4.978-14.265-10.104 0-5.78 4.309-9.817 12.383-9.817 5.653 0 11.305 1.62 15.745 3.764 1.886.942 3.903 1.487 5.789 1.487 4.845 0 8.612-3.63 8.612-8.616 0-3.226-1.481-5.921-4.71-7.939-5.384-3.372-15.476-6.06-25.572-6.06-19.781 0-32.436 11.171-32.436 27.998 0 16.15 10.232 24.898 28.938 27.454l4.846.67c10.903 1.48 14.129 4.846 14.129 10.229 0 6.326-5.247 10.766-14.939 10.766-6.727 0-12.111-1.745-19.645-5.921-1.616-.942-3.634-1.62-5.788-1.62-5.115 0-8.885 3.91-8.885 8.756 0 3.226 1.616 6.326 4.713 8.344 6.054 3.764 15.878 7.8 28.798 7.8 23.823 0 35.934-12.24 35.934-28.795 0-16.554-9.824-25.038-28.801-27.726zm100.812-37.286c-4.577 0-7.939 2.43-9.556 7.674l-16.69 54.51h-.402l-17.634-54.51c-1.745-5.244-4.978-7.674-9.551-7.674-5.653 0-9.692 4.176-9.692 9.287 0 1.347.269 2.834.67 4.175l23.286 68.104c2.96 8.477 6.727 11.57 12.652 11.57 5.785 0 9.555-3.093 12.516-11.57l23.282-68.104c.406-1.341.674-2.828.674-4.175.001-5.111-3.903-9.287-9.555-9.287zm83.448 41.454h-18.841c-5.114 0-8.344 3.1-8.344 7.806 0 4.713 3.23 7.814 8.344 7.814h6.193c.538 0 .803.258.803.803 0 3.505-.265 6.598-1.075 9.014-1.882 5.796-7.67 9.426-14.669 9.426-7.943 0-12.921-3.903-14.939-10.096-1.075-3.365-1.48-7.8-1.48-19.648 0-11.842.405-16.15 1.48-19.516 2.018-6.325 6.867-10.228 14.67-10.228 5.924 0 10.362 1.885 13.859 6.724 2.695 3.777 5.387 4.852 8.749 4.852 4.981 0 9.021-3.638 9.021-8.888 0-2.151-.674-4.035-1.752-5.921-4.842-8.204-15.071-14.264-29.877-14.264-16.287 0-28.935 7.408-33.644 22.204-2.022 6.466-2.559 11.576-2.559 25.038 0 13.454.538 18.573 2.559 25.031 4.709 14.802 17.357 22.204 33.644 22.204 16.286 0 28.668-8.204 33.374-22.881 1.617-5.111 2.29-12.645 2.29-20.716v-.95c0-4.98-2.824-7.808-7.806-7.808z"/></symbol></symbol><symbol viewBox="0 0 512 512" id="ccctest"><path class="cccdst0" d="M378.409 0H195.118l-9.314 9.315L57.017 138.101l-9.314 9.315v278.689c0 47.36 38.528 85.896 85.895 85.896h244.811c47.361 0 85.888-38.535 85.888-85.896V85.896C464.297 38.528 425.77 0 378.409 0zm54.084 426.104c0 29.877-24.214 54.091-54.084 54.091H133.598c-29.877 0-54.091-24.214-54.091-54.091V160.592h83.717c24.884 0 45.07-20.179 45.07-45.071V31.804h170.114c29.87 0 54.084 24.214 54.084 54.091v340.209z"/><path class="cccdst0" d="M180.296 296.668l-4.846-.67c-10.63-1.487-14.265-4.978-14.265-10.104 0-5.78 4.309-9.817 12.383-9.817 5.653 0 11.305 1.62 15.745 3.764 1.886.942 3.903 1.487 5.789 1.487 4.845 0 8.612-3.63 8.612-8.616 0-3.226-1.481-5.921-4.71-7.939-5.384-3.372-15.476-6.06-25.572-6.06-19.781 0-32.436 11.171-32.436 27.998 0 16.15 10.232 24.898 28.938 27.454l4.846.67c10.903 1.48 14.129 4.846 14.129 10.229 0 6.326-5.247 10.766-14.939 10.766-6.727 0-12.111-1.745-19.645-5.921-1.616-.942-3.634-1.62-5.788-1.62-5.115 0-8.885 3.91-8.885 8.756 0 3.226 1.616 6.326 4.713 8.344 6.054 3.764 15.878 7.8 28.798 7.8 23.823 0 35.934-12.24 35.934-28.795 0-16.554-9.824-25.038-28.801-27.726zm100.812-37.286c-4.577 0-7.939 2.43-9.556 7.674l-16.69 54.51h-.402l-17.634-54.51c-1.745-5.244-4.978-7.674-9.551-7.674-5.653 0-9.692 4.176-9.692 9.287 0 1.347.269 2.834.67 4.175l23.286 68.104c2.96 8.477 6.727 11.57 12.652 11.57 5.785 0 9.555-3.093 12.516-11.57l23.282-68.104c.406-1.341.674-2.828.674-4.175.001-5.111-3.903-9.287-9.555-9.287zm83.448 41.454h-18.841c-5.114 0-8.344 3.1-8.344 7.806 0 4.713 3.23 7.814 8.344 7.814h6.193c.538 0 .803.258.803.803 0 3.505-.265 6.598-1.075 9.014-1.882 5.796-7.67 9.426-14.669 9.426-7.943 0-12.921-3.903-14.939-10.096-1.075-3.365-1.48-7.8-1.48-19.648 0-11.842.405-16.15 1.48-19.516 2.018-6.325 6.867-10.228 14.67-10.228 5.924 0 10.362 1.885 13.859 6.724 2.695 3.777 5.387 4.852 8.749 4.852 4.981 0 9.021-3.638 9.021-8.888 0-2.151-.674-4.035-1.752-5.921-4.842-8.204-15.071-14.264-29.877-14.264-16.287 0-28.935 7.408-33.644 22.204-2.022 6.466-2.559 11.576-2.559 25.038 0 13.454.538 18.573 2.559 25.031 4.709 14.802 17.357 22.204 33.644 22.204 16.286 0 28.668-8.204 33.374-22.881 1.617-5.111 2.29-12.645 2.29-20.716v-.95c0-4.98-2.824-7.808-7.806-7.808z"/></symbol></symbol><symbol viewBox="0 0 512 512" id="cctest"><path class="ccdst0" d="M378.409 0H195.118l-9.314 9.315L57.017 138.101l-9.314 9.315v278.689c0 47.36 38.528 85.896 85.895 85.896h244.811c47.361 0 85.888-38.535 85.888-85.896V85.896C464.297 38.528 425.77 0 378.409 0zm54.084 426.104c0 29.877-24.214 54.091-54.084 54.091H133.598c-29.877 0-54.091-24.214-54.091-54.091V160.592h83.717c24.884 0 45.07-20.179 45.07-45.071V31.804h170.114c29.87 0 54.084 24.214 54.084 54.091v340.209z"/><path class="ccdst0" d="M180.296 296.668l-4.846-.67c-10.63-1.487-14.265-4.978-14.265-10.104 0-5.78 4.309-9.817 12.383-9.817 5.653 0 11.305 1.62 15.745 3.764 1.886.942 3.903 1.487 5.789 1.487 4.845 0 8.612-3.63 8.612-8.616 0-3.226-1.481-5.921-4.71-7.939-5.384-3.372-15.476-6.06-25.572-6.06-19.781 0-32.436 11.171-32.436 27.998 0 16.15 10.232 24.898 28.938 27.454l4.846.67c10.903 1.48 14.129 4.846 14.129 10.229 0 6.326-5.247 10.766-14.939 10.766-6.727 0-12.111-1.745-19.645-5.921-1.616-.942-3.634-1.62-5.788-1.62-5.115 0-8.885 3.91-8.885 8.756 0 3.226 1.616 6.326 4.713 8.344 6.054 3.764 15.878 7.8 28.798 7.8 23.823 0 35.934-12.24 35.934-28.795 0-16.554-9.824-25.038-28.801-27.726zm100.812-37.286c-4.577 0-7.939 2.43-9.556 7.674l-16.69 54.51h-.402l-17.634-54.51c-1.745-5.244-4.978-7.674-9.551-7.674-5.653 0-9.692 4.176-9.692 9.287 0 1.347.269 2.834.67 4.175l23.286 68.104c2.96 8.477 6.727 11.57 12.652 11.57 5.785 0 9.555-3.093 12.516-11.57l23.282-68.104c.406-1.341.674-2.828.674-4.175.001-5.111-3.903-9.287-9.555-9.287zm83.448 41.454h-18.841c-5.114 0-8.344 3.1-8.344 7.806 0 4.713 3.23 7.814 8.344 7.814h6.193c.538 0 .803.258.803.803 0 3.505-.265 6.598-1.075 9.014-1.882 5.796-7.67 9.426-14.669 9.426-7.943 0-12.921-3.903-14.939-10.096-1.075-3.365-1.48-7.8-1.48-19.648 0-11.842.405-16.15 1.48-19.516 2.018-6.325 6.867-10.228 14.67-10.228 5.924 0 10.362 1.885 13.859 6.724 2.695 3.777 5.387 4.852 8.749 4.852 4.981 0 9.021-3.638 9.021-8.888 0-2.151-.674-4.035-1.752-5.921-4.842-8.204-15.071-14.264-29.877-14.264-16.287 0-28.935 7.408-33.644 22.204-2.022 6.466-2.559 11.576-2.559 25.038 0 13.454.538 18.573 2.559 25.031 4.709 14.802 17.357 22.204 33.644 22.204 16.286 0 28.668-8.204 33.374-22.881 1.617-5.111 2.29-12.645 2.29-20.716v-.95c0-4.98-2.824-7.808-7.806-7.808z"/></symbol></symbol><symbol viewBox="0 0 512 512" id="ctest" xmlns="http://www.w3.org/2000/svg"><path class="cdst0" d="M378.409 0H195.118l-9.314 9.315L57.017 138.101l-9.314 9.315v278.689c0 47.36 38.528 85.896 85.895 85.896h244.811c47.361 0 85.888-38.535 85.888-85.896V85.896C464.297 38.528 425.77 0 378.409 0zm54.084 426.104c0 29.877-24.214 54.091-54.084 54.091H133.598c-29.877 0-54.091-24.214-54.091-54.091V160.592h83.717c24.884 0 45.07-20.179 45.07-45.071V31.804h170.114c29.87 0 54.084 24.214 54.084 54.091v340.209z"/><path class="cdst0" d="M180.296 296.668l-4.846-.67c-10.63-1.487-14.265-4.978-14.265-10.104 0-5.78 4.309-9.817 12.383-9.817 5.653 0 11.305 1.62 15.745 3.764 1.886.942 3.903 1.487 5.789 1.487 4.845 0 8.612-3.63 8.612-8.616 0-3.226-1.481-5.921-4.71-7.939-5.384-3.372-15.476-6.06-25.572-6.06-19.781 0-32.436 11.171-32.436 27.998 0 16.15 10.232 24.898 28.938 27.454l4.846.67c10.903 1.48 14.129 4.846 14.129 10.229 0 6.326-5.247 10.766-14.939 10.766-6.727 0-12.111-1.745-19.645-5.921-1.616-.942-3.634-1.62-5.788-1.62-5.115 0-8.885 3.91-8.885 8.756 0 3.226 1.616 6.326 4.713 8.344 6.054 3.764 15.878 7.8 28.798 7.8 23.823 0 35.934-12.24 35.934-28.795 0-16.554-9.824-25.038-28.801-27.726zm100.812-37.286c-4.577 0-7.939 2.43-9.556 7.674l-16.69 54.51h-.402l-17.634-54.51c-1.745-5.244-4.978-7.674-9.551-7.674-5.653 0-9.692 4.176-9.692 9.287 0 1.347.269 2.834.67 4.175l23.286 68.104c2.96 8.477 6.727 11.57 12.652 11.57 5.785 0 9.555-3.093 12.516-11.57l23.282-68.104c.406-1.341.674-2.828.674-4.175.001-5.111-3.903-9.287-9.555-9.287zm83.448 41.454h-18.841c-5.114 0-8.344 3.1-8.344 7.806 0 4.713 3.23 7.814 8.344 7.814h6.193c.538 0 .803.258.803.803 0 3.505-.265 6.598-1.075 9.014-1.882 5.796-7.67 9.426-14.669 9.426-7.943 0-12.921-3.903-14.939-10.096-1.075-3.365-1.48-7.8-1.48-19.648 0-11.842.405-16.15 1.48-19.516 2.018-6.325 6.867-10.228 14.67-10.228 5.924 0 10.362 1.885 13.859 6.724 2.695 3.777 5.387 4.852 8.749 4.852 4.981 0 9.021-3.638 9.021-8.888 0-2.151-.674-4.035-1.752-5.921-4.842-8.204-15.071-14.264-29.877-14.264-16.287 0-28.935 7.408-33.644 22.204-2.022 6.466-2.559 11.576-2.559 25.038 0 13.454.538 18.573 2.559 25.031 4.709 14.802 17.357 22.204 33.644 22.204 16.286 0 28.668-8.204 33.374-22.881 1.617-5.111 2.29-12.645 2.29-20.716v-.95c0-4.98-2.824-7.808-7.806-7.808z"/></symbol></symbol><symbol viewBox="0 0 512 512" id="test" xmlns="http://www.w3.org/2000/svg"><path class="dst0" d="M378.409 0H195.118l-9.314 9.315L57.017 138.101l-9.314 9.315V426.105c0 47.36 38.528 85.896 85.895 85.896h244.811c47.361 0 85.888-38.535 85.888-85.896V85.896C464.297 38.528 425.77 0 378.409 0zm54.084 426.104c0 29.877-24.214 54.091-54.084 54.091H133.598c-29.877 0-54.091-24.214-54.091-54.091V160.592h83.717c24.884 0 45.07-20.179 45.07-45.071V31.804h170.114c29.87 0 54.084 24.214 54.084 54.091v340.209z"/><path class="dst0" d="M180.296 296.668l-4.846-.67c-10.63-1.487-14.265-4.978-14.265-10.104 0-5.78 4.309-9.817 12.383-9.817 5.653 0 11.305 1.62 15.745 3.764 1.886.942 3.903 1.487 5.789 1.487 4.845 0 8.612-3.63 8.612-8.616 0-3.226-1.481-5.921-4.71-7.939-5.384-3.372-15.476-6.06-25.572-6.06-19.781 0-32.436 11.171-32.436 27.998 0 16.15 10.232 24.898 28.938 27.454l4.846.67c10.903 1.48 14.129 4.846 14.129 10.229 0 6.326-5.247 10.766-14.939 10.766-6.727 0-12.111-1.745-19.645-5.921-1.616-.942-3.634-1.62-5.788-1.62-5.115 0-8.885 3.91-8.885 8.756 0 3.226 1.616 6.326 4.713 8.344 6.054 3.764 15.878 7.8 28.798 7.8 23.823 0 35.934-12.24 35.934-28.795 0-16.554-9.824-25.038-28.801-27.726zM281.108 259.382c-4.577 0-7.939 2.43-9.556 7.674l-16.69 54.51h-.402l-17.634-54.51c-1.745-5.244-4.978-7.674-9.551-7.674-5.653 0-9.692 4.176-9.692 9.287 0 1.347.269 2.834.67 4.175l23.286 68.104c2.96 8.477 6.727 11.57 12.652 11.57 5.785 0 9.555-3.093 12.516-11.57l23.282-68.104c.406-1.341.674-2.828.674-4.175.001-5.111-3.903-9.287-9.555-9.287zM364.556 300.836h-18.841c-5.114 0-8.344 3.1-8.344 7.806 0 4.713 3.23 7.814 8.344 7.814h6.193c.538 0 .803.258.803.803 0 3.505-.265 6.598-1.075 9.014-1.882 5.796-7.67 9.426-14.669 9.426-7.943 0-12.921-3.903-14.939-10.096-1.075-3.365-1.48-7.8-1.48-19.648 0-11.842.405-16.15 1.48-19.516 2.018-6.325 6.867-10.228 14.67-10.228 5.924 0 10.362 1.885 13.859 6.724 2.695 3.777 5.387 4.852 8.749 4.852 4.981 0 9.021-3.638 9.021-8.888 0-2.151-.674-4.035-1.752-5.921-4.842-8.204-15.071-14.264-29.877-14.264-16.287 0-28.935 7.408-33.644 22.204-2.022 6.466-2.559 11.576-2.559 25.038 0 13.454.538 18.573 2.559 25.031 4.709 14.802 17.357 22.204 33.644 22.204 16.286 0 28.668-8.204 33.374-22.881 1.617-5.111 2.29-12.645 2.29-20.716v-.95c0-4.98-2.824-7.808-7.806-7.808z"/></symbol></svg>